<?xml version="1.0" encoding="UTF-8" standalone="no"?>
<!-- Created with Inkscape (http://www.inkscape.org/) -->

<svg
   xmlns:dc="http://purl.org/dc/elements/1.1/"
   xmlns:cc="http://creativecommons.org/ns#"
   xmlns:rdf="http://www.w3.org/1999/02/22-rdf-syntax-ns#"
   xmlns:svg="http://www.w3.org/2000/svg"
   xmlns="http://www.w3.org/2000/svg"
   xmlns:xlink="http://www.w3.org/1999/xlink"
   xmlns:inkscape="http://www.inkscape.org/namespaces/inkscape"
   version="1.1"
   width="284"
   height="158"
   id="svg2"
   xml:space="preserve"
   style="overflow:visible"><metadata
     id="metadata731"><rdf:RDF><cc:Work
         rdf:about=""><dc:format>image/svg+xml</dc:format><dc:type
           rdf:resource="http://purl.org/dc/dcmitype/StillImage" /><dc:title></dc:title></cc:Work></rdf:RDF></metadata><defs
     id="defs729"><inkscape:path-effect
       effect="spiro"
       id="path-effect5755" /><marker
       refX="0"
       refY="0"
       orient="auto"
       id="Arrow1Lstart"
       style="overflow:visible"><path
         d="M 0,0 5,-5 -12.5,0 5,5 0,0 z"
         transform="matrix(0.8,0,0,0.8,10,0)"
         id="path5301"
         style="fill-rule:evenodd;stroke:#000000;stroke-width:1pt" /></marker><inkscape:path-effect
       effect="spiro"
       id="path-effect4527" /><linearGradient
       x1="444.76761"
       y1="128.19679"
       x2="463.03879"
       y2="104.4735"
       id="XMLID_19_"
       gradientUnits="userSpaceOnUse"
       gradientTransform="matrix(0.9628,0.2703,-0.2703,0.9628,-46.5876,-124.1503)"><stop
         id="stop339"
         style="stop-color:#f2ca20;stop-opacity:1"
         offset="0" /><stop
         id="stop341"
         style="stop-color:#f2c820;stop-opacity:1"
         offset="0.4479" /><stop
         id="stop343"
         style="stop-color:#f0c11f;stop-opacity:1"
         offset="0.6092" /><stop
         id="stop345"
         style="stop-color:#eeb61e;stop-opacity:1"
         offset="0.72420001" /><stop
         id="stop347"
         style="stop-color:#eba51c;stop-opacity:1"
         offset="0.81709999" /><stop
         id="stop349"
         style="stop-color:#e78f19;stop-opacity:1"
         offset="0.89579999" /><stop
         id="stop351"
         style="stop-color:#e58418;stop-opacity:1"
         offset="0.92699999" /></linearGradient><linearGradient
       x1="448.4707"
       y1="113.4624"
       x2="459.8165"
       y2="121.5665"
       id="XMLID_20_"
       gradientUnits="userSpaceOnUse"
       gradientTransform="matrix(0.9628,0.2703,-0.2703,0.9628,-46.5876,-124.1503)"><stop
         id="stop356"
         style="stop-color:#a6430e;stop-opacity:1"
         offset="0.0056" /><stop
         id="stop358"
         style="stop-color:#dd5913;stop-opacity:1"
         offset="0.31459999" /><stop
         id="stop360"
         style="stop-color:#f29620;stop-opacity:1"
         offset="1" /></linearGradient><radialGradient
       cx="450.19339"
       cy="116.519"
       r="3.8683"
       id="XMLID_21_"
       gradientUnits="userSpaceOnUse"
       gradientTransform="matrix(0.9628,0.2703,-0.2703,0.9628,-46.5876,-124.1503)"><stop
         id="stop365"
         style="stop-color:#f2ca20;stop-opacity:1"
         offset="0" /><stop
         id="stop367"
         style="stop-color:#f2c71f;stop-opacity:1"
         offset="0.0144" /><stop
         id="stop369"
         style="stop-color:#f88e12;stop-opacity:1"
         offset="0.35159999" /><stop
         id="stop371"
         style="stop-color:#fc6308;stop-opacity:1"
         offset="0.63999999" /><stop
         id="stop373"
         style="stop-color:#fe4a02;stop-opacity:1"
         offset="0.86540002" /><stop
         id="stop375"
         style="stop-color:#ff4000;stop-opacity:1"
         offset="1" /></radialGradient><radialGradient
       cx="451.71289"
       cy="119.019"
       r="3.8680999"
       id="XMLID_22_"
       gradientUnits="userSpaceOnUse"
       gradientTransform="matrix(0.9628,0.2703,-0.2703,0.9628,-46.5876,-124.1503)"><stop
         id="stop380"
         style="stop-color:#f2ca20;stop-opacity:1"
         offset="0" /><stop
         id="stop382"
         style="stop-color:#f2c71f;stop-opacity:1"
         offset="0.0144" /><stop
         id="stop384"
         style="stop-color:#f88e12;stop-opacity:1"
         offset="0.35159999" /><stop
         id="stop386"
         style="stop-color:#fc6308;stop-opacity:1"
         offset="0.63999999" /><stop
         id="stop388"
         style="stop-color:#fe4a02;stop-opacity:1"
         offset="0.86540002" /><stop
         id="stop390"
         style="stop-color:#ff4000;stop-opacity:1"
         offset="1" /></radialGradient><radialGradient
       cx="446.39359"
       cy="120.5327"
       r="3.8683"
       id="XMLID_23_"
       gradientUnits="userSpaceOnUse"
       gradientTransform="matrix(0.9628,0.2703,-0.2703,0.9628,-46.5876,-124.1503)"><stop
         id="stop395"
         style="stop-color:#f2ca20;stop-opacity:1"
         offset="0" /><stop
         id="stop397"
         style="stop-color:#f2c71f;stop-opacity:1"
         offset="0.0144" /><stop
         id="stop399"
         style="stop-color:#f88e12;stop-opacity:1"
         offset="0.35159999" /><stop
         id="stop401"
         style="stop-color:#fc6308;stop-opacity:1"
         offset="0.63999999" /><stop
         id="stop403"
         style="stop-color:#fe4a02;stop-opacity:1"
         offset="0.86540002" /><stop
         id="stop405"
         style="stop-color:#ff4000;stop-opacity:1"
         offset="1" /></radialGradient><radialGradient
       cx="448.5654"
       cy="122.353"
       r="3.8676"
       id="XMLID_24_"
       gradientUnits="userSpaceOnUse"
       gradientTransform="matrix(0.9628,0.2703,-0.2703,0.9628,-46.5876,-124.1503)"><stop
         id="stop410"
         style="stop-color:#f2ca20;stop-opacity:1"
         offset="0" /><stop
         id="stop412"
         style="stop-color:#f2c71f;stop-opacity:1"
         offset="0.0144" /><stop
         id="stop414"
         style="stop-color:#f88e12;stop-opacity:1"
         offset="0.35159999" /><stop
         id="stop416"
         style="stop-color:#fc6308;stop-opacity:1"
         offset="0.63999999" /><stop
         id="stop418"
         style="stop-color:#fe4a02;stop-opacity:1"
         offset="0.86540002" /><stop
         id="stop420"
         style="stop-color:#ff4000;stop-opacity:1"
         offset="1" /></radialGradient><radialGradient
       cx="454.53809"
       cy="110.8677"
       r="3.8680999"
       id="XMLID_25_"
       gradientUnits="userSpaceOnUse"
       gradientTransform="matrix(0.9628,0.2703,-0.2703,0.9628,-46.5876,-124.1503)"><stop
         id="stop425"
         style="stop-color:#f2ca20;stop-opacity:1"
         offset="0" /><stop
         id="stop427"
         style="stop-color:#f2c71f;stop-opacity:1"
         offset="0.0144" /><stop
         id="stop429"
         style="stop-color:#f88e12;stop-opacity:1"
         offset="0.35159999" /><stop
         id="stop431"
         style="stop-color:#fc6308;stop-opacity:1"
         offset="0.63999999" /><stop
         id="stop433"
         style="stop-color:#fe4a02;stop-opacity:1"
         offset="0.86540002" /><stop
         id="stop435"
         style="stop-color:#ff4000;stop-opacity:1"
         offset="1" /></radialGradient><radialGradient
       cx="455.1221"
       cy="115.0483"
       r="3.8683"
       id="XMLID_26_"
       gradientUnits="userSpaceOnUse"
       gradientTransform="matrix(0.9628,0.2703,-0.2703,0.9628,-46.5876,-124.1503)"><stop
         id="stop440"
         style="stop-color:#f2ca20;stop-opacity:1"
         offset="0" /><stop
         id="stop442"
         style="stop-color:#f2c71f;stop-opacity:1"
         offset="0.0144" /><stop
         id="stop444"
         style="stop-color:#f88e12;stop-opacity:1"
         offset="0.35159999" /><stop
         id="stop446"
         style="stop-color:#fc6308;stop-opacity:1"
         offset="0.63999999" /><stop
         id="stop448"
         style="stop-color:#fe4a02;stop-opacity:1"
         offset="0.86540002" /><stop
         id="stop450"
         style="stop-color:#ff4000;stop-opacity:1"
         offset="1" /></radialGradient><radialGradient
       cx="461.85449"
       cy="110.8682"
       r="3.8683"
       id="XMLID_27_"
       gradientUnits="userSpaceOnUse"
       gradientTransform="matrix(0.9628,0.2703,-0.2703,0.9628,-46.5876,-124.1503)"><stop
         id="stop455"
         style="stop-color:#f2ca20;stop-opacity:1"
         offset="0" /><stop
         id="stop457"
         style="stop-color:#f2c71f;stop-opacity:1"
         offset="0.0144" /><stop
         id="stop459"
         style="stop-color:#f88e12;stop-opacity:1"
         offset="0.35159999" /><stop
         id="stop461"
         style="stop-color:#fc6308;stop-opacity:1"
         offset="0.63999999" /><stop
         id="stop463"
         style="stop-color:#fe4a02;stop-opacity:1"
         offset="0.86540002" /><stop
         id="stop465"
         style="stop-color:#ff4000;stop-opacity:1"
         offset="1" /></radialGradient><radialGradient
       cx="460.2959"
       cy="104.8306"
       r="3.8678"
       id="XMLID_28_"
       gradientUnits="userSpaceOnUse"
       gradientTransform="matrix(0.9628,0.2703,-0.2703,0.9628,-46.5876,-124.1503)"><stop
         id="stop470"
         style="stop-color:#f2ca20;stop-opacity:1"
         offset="0" /><stop
         id="stop472"
         style="stop-color:#f2c71f;stop-opacity:1"
         offset="0.0144" /><stop
         id="stop474"
         style="stop-color:#f88e12;stop-opacity:1"
         offset="0.35159999" /><stop
         id="stop476"
         style="stop-color:#fc6308;stop-opacity:1"
         offset="0.63999999" /><stop
         id="stop478"
         style="stop-color:#fe4a02;stop-opacity:1"
         offset="0.86540002" /><stop
         id="stop480"
         style="stop-color:#ff4000;stop-opacity:1"
         offset="1" /></radialGradient><radialGradient
       cx="481.9111"
       cy="102.5952"
       r="3.8676"
       id="XMLID_29_"
       gradientUnits="userSpaceOnUse"
       gradientTransform="matrix(0.9628,0.2703,-0.2703,0.9628,-46.5876,-124.1503)"><stop
         id="stop485"
         style="stop-color:#f2ca20;stop-opacity:1"
         offset="0" /><stop
         id="stop487"
         style="stop-color:#f2c71f;stop-opacity:1"
         offset="0.0144" /><stop
         id="stop489"
         style="stop-color:#f88e12;stop-opacity:1"
         offset="0.35159999" /><stop
         id="stop491"
         style="stop-color:#fc6308;stop-opacity:1"
         offset="0.63999999" /><stop
         id="stop493"
         style="stop-color:#fe4a02;stop-opacity:1"
         offset="0.86540002" /><stop
         id="stop495"
         style="stop-color:#ff4000;stop-opacity:1"
         offset="1" /></radialGradient><radialGradient
       cx="476.55569"
       cy="112.2339"
       r="3.8687999"
       id="XMLID_30_"
       gradientUnits="userSpaceOnUse"
       gradientTransform="matrix(0.9628,0.2703,-0.2703,0.9628,-46.5876,-124.1503)"><stop
         id="stop500"
         style="stop-color:#f2ca20;stop-opacity:1"
         offset="0" /><stop
         id="stop502"
         style="stop-color:#f2c71f;stop-opacity:1"
         offset="0.0144" /><stop
         id="stop504"
         style="stop-color:#f88e12;stop-opacity:1"
         offset="0.35159999" /><stop
         id="stop506"
         style="stop-color:#fc6308;stop-opacity:1"
         offset="0.63999999" /><stop
         id="stop508"
         style="stop-color:#fe4a02;stop-opacity:1"
         offset="0.86540002" /><stop
         id="stop510"
         style="stop-color:#ff4000;stop-opacity:1"
         offset="1" /></radialGradient><radialGradient
       cx="467.6123"
       cy="107.0498"
       r="3.8683"
       id="XMLID_31_"
       gradientUnits="userSpaceOnUse"
       gradientTransform="matrix(0.9628,0.2703,-0.2703,0.9628,-46.5876,-124.1503)"><stop
         id="stop515"
         style="stop-color:#f2ca20;stop-opacity:1"
         offset="0" /><stop
         id="stop517"
         style="stop-color:#f2c71f;stop-opacity:1"
         offset="0.0144" /><stop
         id="stop519"
         style="stop-color:#f88e12;stop-opacity:1"
         offset="0.35159999" /><stop
         id="stop521"
         style="stop-color:#fc6308;stop-opacity:1"
         offset="0.63999999" /><stop
         id="stop523"
         style="stop-color:#fe4a02;stop-opacity:1"
         offset="0.86540002" /><stop
         id="stop525"
         style="stop-color:#ff4000;stop-opacity:1"
         offset="1" /></radialGradient><radialGradient
       cx="459.39359"
       cy="114.2476"
       r="3.8683"
       id="XMLID_32_"
       gradientUnits="userSpaceOnUse"
       gradientTransform="matrix(0.9628,0.2703,-0.2703,0.9628,-46.5876,-124.1503)"><stop
         id="stop530"
         style="stop-color:#f2ca20;stop-opacity:1"
         offset="0" /><stop
         id="stop532"
         style="stop-color:#f2c71f;stop-opacity:1"
         offset="0.0144" /><stop
         id="stop534"
         style="stop-color:#f88e12;stop-opacity:1"
         offset="0.35159999" /><stop
         id="stop536"
         style="stop-color:#fc6308;stop-opacity:1"
         offset="0.63999999" /><stop
         id="stop538"
         style="stop-color:#fe4a02;stop-opacity:1"
         offset="0.86540002" /><stop
         id="stop540"
         style="stop-color:#ff4000;stop-opacity:1"
         offset="1" /></radialGradient><radialGradient
       cx="454.8486"
       cy="118.668"
       r="3.8683"
       id="XMLID_33_"
       gradientUnits="userSpaceOnUse"
       gradientTransform="matrix(0.9628,0.2703,-0.2703,0.9628,-46.5876,-124.1503)"><stop
         id="stop545"
         style="stop-color:#f2ca20;stop-opacity:1"
         offset="0" /><stop
         id="stop547"
         style="stop-color:#f2c71f;stop-opacity:1"
         offset="0.0144" /><stop
         id="stop549"
         style="stop-color:#f88e12;stop-opacity:1"
         offset="0.35159999" /><stop
         id="stop551"
         style="stop-color:#fc6308;stop-opacity:1"
         offset="0.63999999" /><stop
         id="stop553"
         style="stop-color:#fe4a02;stop-opacity:1"
         offset="0.86540002" /><stop
         id="stop555"
         style="stop-color:#ff4000;stop-opacity:1"
         offset="1" /></radialGradient><radialGradient
       cx="447.71881"
       cy="117.0371"
       r="3.8683"
       id="XMLID_34_"
       gradientUnits="userSpaceOnUse"
       gradientTransform="matrix(0.9628,0.2703,-0.2703,0.9628,-46.5876,-124.1503)"><stop
         id="stop560"
         style="stop-color:#f2ca20;stop-opacity:1"
         offset="0" /><stop
         id="stop562"
         style="stop-color:#f2c71f;stop-opacity:1"
         offset="0.0144" /><stop
         id="stop564"
         style="stop-color:#f88e12;stop-opacity:1"
         offset="0.35159999" /><stop
         id="stop566"
         style="stop-color:#fc6308;stop-opacity:1"
         offset="0.63999999" /><stop
         id="stop568"
         style="stop-color:#fe4a02;stop-opacity:1"
         offset="0.86540002" /><stop
         id="stop570"
         style="stop-color:#ff4000;stop-opacity:1"
         offset="1" /></radialGradient><radialGradient
       cx="445.36621"
       cy="123.6655"
       r="3.8680999"
       id="XMLID_35_"
       gradientUnits="userSpaceOnUse"
       gradientTransform="matrix(0.9628,0.2703,-0.2703,0.9628,-46.5876,-124.1503)"><stop
         id="stop575"
         style="stop-color:#f2ca20;stop-opacity:1"
         offset="0" /><stop
         id="stop577"
         style="stop-color:#f2c71f;stop-opacity:1"
         offset="0.0144" /><stop
         id="stop579"
         style="stop-color:#f88e12;stop-opacity:1"
         offset="0.35159999" /><stop
         id="stop581"
         style="stop-color:#fc6308;stop-opacity:1"
         offset="0.63999999" /><stop
         id="stop583"
         style="stop-color:#fe4a02;stop-opacity:1"
         offset="0.86540002" /><stop
         id="stop585"
         style="stop-color:#ff4000;stop-opacity:1"
         offset="1" /></radialGradient><radialGradient
       cx="456.53131"
       cy="106.1177"
       r="3.8678"
       id="XMLID_36_"
       gradientUnits="userSpaceOnUse"
       gradientTransform="matrix(0.9628,0.2703,-0.2703,0.9628,-46.5876,-124.1503)"><stop
         id="stop590"
         style="stop-color:#f2ca20;stop-opacity:1"
         offset="0" /><stop
         id="stop592"
         style="stop-color:#f2c71f;stop-opacity:1"
         offset="0.0144" /><stop
         id="stop594"
         style="stop-color:#f88e12;stop-opacity:1"
         offset="0.35159999" /><stop
         id="stop596"
         style="stop-color:#fc6308;stop-opacity:1"
         offset="0.63999999" /><stop
         id="stop598"
         style="stop-color:#fe4a02;stop-opacity:1"
         offset="0.86540002" /><stop
         id="stop600"
         style="stop-color:#ff4000;stop-opacity:1"
         offset="1" /></radialGradient><radialGradient
       cx="456.53131"
       cy="106.1177"
       r="3.8678"
       id="radialGradient3293"
       xlink:href="#XMLID_36_"
       gradientUnits="userSpaceOnUse"
       gradientTransform="matrix(0.9628,0.2703,-0.2703,0.9628,-46.5876,-124.1503)" /><radialGradient
       cx="445.36621"
       cy="123.6655"
       r="3.8680999"
       id="radialGradient3296"
       xlink:href="#XMLID_35_"
       gradientUnits="userSpaceOnUse"
       gradientTransform="matrix(0.9628,0.2703,-0.2703,0.9628,-46.5876,-124.1503)" /><radialGradient
       cx="447.71881"
       cy="117.0371"
       r="3.8683"
       id="radialGradient3299"
       xlink:href="#XMLID_34_"
       gradientUnits="userSpaceOnUse"
       gradientTransform="matrix(0.9628,0.2703,-0.2703,0.9628,-46.5876,-124.1503)" /><radialGradient
       cx="454.8486"
       cy="118.668"
       r="3.8683"
       id="radialGradient3302"
       xlink:href="#XMLID_33_"
       gradientUnits="userSpaceOnUse"
       gradientTransform="matrix(0.9628,0.2703,-0.2703,0.9628,-46.5876,-124.1503)" /><radialGradient
       cx="459.39359"
       cy="114.2476"
       r="3.8683"
       id="radialGradient3305"
       xlink:href="#XMLID_32_"
       gradientUnits="userSpaceOnUse"
       gradientTransform="matrix(0.9628,0.2703,-0.2703,0.9628,-46.5876,-124.1503)" /><radialGradient
       cx="467.6123"
       cy="107.0498"
       r="3.8683"
       id="radialGradient3308"
       xlink:href="#XMLID_31_"
       gradientUnits="userSpaceOnUse"
       gradientTransform="matrix(0.9628,0.2703,-0.2703,0.9628,-46.5876,-124.1503)" /><radialGradient
       cx="476.55569"
       cy="112.2339"
       r="3.8687999"
       id="radialGradient3311"
       xlink:href="#XMLID_30_"
       gradientUnits="userSpaceOnUse"
       gradientTransform="matrix(0.9628,0.2703,-0.2703,0.9628,-46.5876,-124.1503)" /><radialGradient
       cx="481.9111"
       cy="102.5952"
       r="3.8676"
       id="radialGradient3314"
       xlink:href="#XMLID_29_"
       gradientUnits="userSpaceOnUse"
       gradientTransform="matrix(0.9628,0.2703,-0.2703,0.9628,-46.5876,-124.1503)" /><radialGradient
       cx="460.2959"
       cy="104.8306"
       r="3.8678"
       id="radialGradient3317"
       xlink:href="#XMLID_28_"
       gradientUnits="userSpaceOnUse"
       gradientTransform="matrix(0.9628,0.2703,-0.2703,0.9628,-46.5876,-124.1503)" /><radialGradient
       cx="461.85449"
       cy="110.8682"
       r="3.8683"
       id="radialGradient3320"
       xlink:href="#XMLID_27_"
       gradientUnits="userSpaceOnUse"
       gradientTransform="matrix(0.9628,0.2703,-0.2703,0.9628,-46.5876,-124.1503)" /><radialGradient
       cx="455.1221"
       cy="115.0483"
       r="3.8683"
       id="radialGradient3323"
       xlink:href="#XMLID_26_"
       gradientUnits="userSpaceOnUse"
       gradientTransform="matrix(0.9628,0.2703,-0.2703,0.9628,-46.5876,-124.1503)" /><radialGradient
       cx="454.53809"
       cy="110.8677"
       r="3.8680999"
       id="radialGradient3326"
       xlink:href="#XMLID_25_"
       gradientUnits="userSpaceOnUse"
       gradientTransform="matrix(0.9628,0.2703,-0.2703,0.9628,-46.5876,-124.1503)" /><radialGradient
       cx="448.5654"
       cy="122.353"
       r="3.8676"
       id="radialGradient3329"
       xlink:href="#XMLID_24_"
       gradientUnits="userSpaceOnUse"
       gradientTransform="matrix(0.9628,0.2703,-0.2703,0.9628,-46.5876,-124.1503)" /><radialGradient
       cx="446.39359"
       cy="120.5327"
       r="3.8683"
       id="radialGradient3332"
       xlink:href="#XMLID_23_"
       gradientUnits="userSpaceOnUse"
       gradientTransform="matrix(0.9628,0.2703,-0.2703,0.9628,-46.5876,-124.1503)" /><radialGradient
       cx="451.71289"
       cy="119.019"
       r="3.8680999"
       id="radialGradient3335"
       xlink:href="#XMLID_22_"
       gradientUnits="userSpaceOnUse"
       gradientTransform="matrix(0.9628,0.2703,-0.2703,0.9628,-46.5876,-124.1503)" /><radialGradient
       cx="450.19339"
       cy="116.519"
       r="3.8683"
       id="radialGradient3338"
       xlink:href="#XMLID_21_"
       gradientUnits="userSpaceOnUse"
       gradientTransform="matrix(0.9628,0.2703,-0.2703,0.9628,-46.5876,-124.1503)" /><linearGradient
       x1="448.4707"
       y1="113.4624"
       x2="459.8165"
       y2="121.5665"
       id="linearGradient3341"
       xlink:href="#XMLID_20_"
       gradientUnits="userSpaceOnUse"
       gradientTransform="matrix(0.9628,0.2703,-0.2703,0.9628,-46.5876,-124.1503)" /><linearGradient
       x1="444.76761"
       y1="128.19679"
       x2="463.03879"
       y2="104.4735"
       id="linearGradient3344"
       xlink:href="#XMLID_19_"
       gradientUnits="userSpaceOnUse"
       gradientTransform="matrix(0.9628,0.2703,-0.2703,0.9628,-46.5876,-124.1503)" /></defs><g
     transform="matrix(0.86297313,0,0,0.86297313,-95.051174,-20.302714)"
     id="g10"><path
       d="m 112.455,85.663 c 3.332,-0.094 6.167,-3.101 10.039,-3.242 3.327,-0.121 7.513,-0.566 10.577,-2.104 2.418,-1.214 3.217,-2.691 6.11,-3.133 2.686,-0.41 5.581,0.01 8.261,-0.274 -1.587,0.167 -6.499,-3.487 -8.36,-4.163 -3.531,-1.282 -7.45,-2.215 -11.191,-1.341 -6.617,1.545 -13.753,7.529 -15.436,14.257 z"
       id="path12"
       style="fill:#ef9c22;stroke:#000000;stroke-width:0.44209999" /><path
       d="m 304.111,120.359 c -2.983,-2.991 -8.664,-1.976 -11.089,-5.06 -2.78,-3.532 -2.045,-9.963 -4.737,-14.15 -1.364,-2.119 -2.654,-3.853 -4.549,-5.558 -2.47,-2.223 -2.38,-1.201 -2.333,-4.877 0.118,-8.877 -4.9,-16.126 -14.099,-18.057 -3.908,-0.82 -5.864,-1.07 -8.91,-3.438 -4.349,-3.381 -8.559,-3.278 -13.681,-4.98 -12.189,-4.05 -24.704,-10.282 -37.398,-10.59 -5.639,-0.138 -15.002,3.341 -20.261,1.183 -4.175,-1.713 -3.282,-4.431 -8.625,-3.309 -7.305,1.535 -15.83,1.964 -21.492,-3.78 -5.641,-5.724 -3.682,-11.983 2.787,-15.69 17.113,-9.802 29.734,-1.731 45.251,6.657 4.501,2.434 9.064,2.962 14.036,3.965 4.967,1.003 9.836,1.585 14.66,3.111 4.263,1.349 8.353,1.688 12.396,3.521 3.854,1.746 7.922,3.169 12.054,4.088 13.816,3.077 24.16,12.729 33.586,23.017 7.44,8.118 18.235,21.367 17.538,32.838 -0.311,5.131 0.351,7.753 2.176,12.279 0.782,1.943 1.738,5.188 -0.771,5.882 -3.149,0.871 -4.837,-5.347 -6.539,-7.052 z"
       id="path14"
       style="fill:#ef9c22;stroke:#000000;stroke-width:0.44209999" /><path
       d="m 261.725,67.144 c 9.723,-5.415 20.269,-12 29.6,-2.564 3.852,3.895 7.73,7.846 10.854,12.369 2.726,3.948 3.75,8.056 5.612,12.293 1.929,4.384 3.24,7.464 3.4,12.435 0.135,4.255 -0.32,8.576 0.482,12.785 0.719,3.753 3.556,8.463 3.202,12.221 -4.159,1.226 -5.412,-2.878 -6.368,-5.874 -1.411,-4.426 -2.761,-8.905 -6.033,-12.35 -3.645,-3.838 -8.364,-4.565 -13.731,-4.117 -16.093,1.348 -33.554,5.748 -45.886,16.819 -7.598,6.819 -13.12,15.655 -21.308,21.861 -3.665,2.778 -6.987,5.452 -11.312,6.854 -8.13,2.633 -19.453,2.629 -25.308,-4.288 -3.459,-4.086 -5.283,-9.833 -6.968,-14.889 -3.535,-10.616 -3.961,-21.929 -9.243,-31.983 -4.717,-8.982 -11.505,-17.318 -20.822,-21.751 -9.532,-4.534 -17.33,-7.698 -26.061,0.145 -2.318,2.08 -5.058,6.449 -7.787,7.698 -4.219,1.929 -3.734,-2.437 -3.59,-6.284 0.593,-15.936 16.664,-18.346 25.015,-29.554 1.862,-2.5 2.336,-5.59 3.668,-8.141 3.88,-7.434 14.041,-10.574 21.751,-11.647 9.375,-1.305 18.155,5.969 23.606,13.019 6.106,7.896 8.31,18.434 10.123,27.994 1.396,7.355 1.849,14.729 3.279,21.936 1.155,5.832 2.172,13.454 1.736,19.379 -0.156,-6.982 -0.731,-13.819 -1.25,-20.737 -0.693,-9.26 -0.211,-18.969 -2.284,-28.046 -2.064,-9.031 -6.673,-17.621 -12.167,-25.021 -2.591,-3.489 -9.359,-9.088 -13.844,-9.032 1.355,-5.956 12.914,-5.083 17.057,-3.963 17.148,4.636 29.678,17.786 48.21,18.506 9.183,0.357 20.36,-4.018 28.756,0.661 2.505,1.395 4.54,3.621 6.93,5.197 1.974,1.302 6.534,3.549 6.185,6.504 -0.373,3.167 -7.86,5.849 -10.235,7.129 -4.774,2.571 -8.929,5.98 -13.318,9.13 -10.882,7.805 -21.502,19.127 -29.458,29.871 1.311,-3.79 5.802,-7.88 8.532,-10.735 5.082,-5.319 10.94,-10.684 16.609,-15.401 3.84,-3.196 7.999,-5.998 12.366,-8.429 z"
       id="path16"
       style="fill:#f2ca20;stroke:#000000;stroke-width:0.44209999" /><path
       d="m 179.202,112.003 c 3.016,7.097 5.648,14.174 8.095,21.464 0.991,2.952 2.043,10.485 6.782,9.207 0.297,-3.354 -1.513,-7.594 -2.377,-10.926 -1.889,-7.291 -2.492,-14.826 -2.73,-22.386 -0.047,5.915 3.048,12.968 5.208,18.362 0.997,2.491 1.768,6.158 3.708,7.743 -0.021,-3.596 -0.681,-7.266 -0.541,-10.921 3.192,1.541 6.065,5.707 9.736,3.364 3.182,-2.031 5.214,-8.304 6.735,-11.586 -2.995,5.951 -7.665,11.668 -9.087,18.515 1.829,0.38 2.251,-1.412 3.479,-2.566 3.957,-3.72 7.581,-7.481 11.067,-11.653 7.174,-8.586 15.945,-14.248 23.763,-21.91 -2.855,3.628 -6.665,6.389 -10.015,9.535 -4.13,3.883 -7.669,8.355 -11.398,12.621 -4.124,4.718 -7.376,10.221 -11.594,14.828 8.792,-4.682 15.965,-14.463 23.737,-20.854 5.376,-4.418 12.491,-9.952 19.073,-12.32 -9.904,8.146 -19.038,16.822 -28.533,25.397 -4.923,4.448 -10.439,7.472 -15.711,11.392 -2.016,1.498 -5.171,3.529 -6.302,5.845 6.791,-3.716 13.148,-6.783 19.127,-11.954 8.037,-6.955 15.397,-14.93 24.309,-20.829 10.047,-6.655 21.089,-10.808 32.784,-13.555 4.045,-0.951 8.82,-2.966 13.06,-2.473 -4.397,-1.781 -13.562,-0.405 -18.309,0.268 -4.876,0.693 -10.036,2.536 -14.956,2.244 10.243,-6.445 21.998,-12.723 33.878,-15.4 -12.767,5.014 -26.218,8.287 -38.909,13.581 -7.596,3.17 -14.096,8.631 -20.849,12.973 11.15,-10.692 23.403,-21.405 37.181,-28.582 7.298,-3.801 13.288,-7.022 21.479,-7.201 -14.16,-0.191 -28.671,7.567 -40.139,15.071 -10.622,6.95 -24.649,15.39 -31.615,26.43 5.222,-7.071 10.026,-14.178 16.187,-20.629 4.386,-4.592 9.522,-8.126 14.226,-12.304 -9.274,6.942 -16.947,15.236 -25.51,22.938 -2.77,2.492 -8.65,5.69 -7.969,-0.509 0.475,-4.337 5.001,-10.456 7.12,-14.147 4.021,-7.005 9.53,-13.734 15.082,-19.592 5.851,-6.175 12.281,-12.77 19.444,-17.35 -10.778,3.976 -20.939,15.825 -27.738,24.649 -5.064,6.573 -9.488,13.85 -13.934,20.548 -0.136,-2.926 1.254,-5.678 2.392,-8.346 2.366,-5.547 3.947,-11.271 5.697,-17.034 2.307,-7.591 4.123,-16.193 7.03,-23.388 -0.36,3.809 -3.666,7.855 -4.987,11.505 -2.336,6.451 -4.586,12.748 -6.52,19.326 -3.054,10.39 -7.108,20.477 -10.075,30.863 1.901,-22.273 5.932,-48.025 -1.444,-69.345 3.898,13.309 5.851,28.42 4.328,42.348 -0.536,4.899 -1.64,9.931 -2.796,14.711 -0.436,1.796 -0.569,3.593 -1.895,4.838 -1.573,-21.804 -2.275,-43.009 -10.614,-63.54 2.085,6.503 4.908,12.638 6.38,19.502 2.169,10.109 1.99,20.637 1.102,30.881 -0.831,9.586 -2.455,19.107 -4.648,28.313 -0.402,0.017 -0.772,0.032 -1.176,0.017 -2.329,-4.466 -2.692,-9.397 -3.935,-14.297 -2.345,-9.245 -4.472,-19.206 -9.058,-27.668 2.763,9.242 6.504,20.079 5.924,29.828 -1.727,-2.651 -2.451,-6.106 -3.213,-9.212 -1.581,-6.461 -4.019,-11.82 -7.12,-17.698 -5.696,-10.798 -13.96,-26.687 -26.186,-31.402 8.102,7.228 15.443,18.498 20.166,28.119 5.865,11.943 10.004,23.721 12.1,36.75 -7.448,-13.536 -14.33,-28.642 -23.855,-41.001 -4.028,-5.224 -8.705,-11.16 -14.464,-14.612 -1.881,-1.128 -7.25,-4.317 -9.202,-3.29 3.646,1.528 6.169,3.951 8.693,6.813 -3.463,0.236 -7.075,-0.712 -10.599,-0.062 -2.91,0.536 -5.756,2.232 -8.539,3.13 4.918,-1.878 11.277,-1.935 16.354,-0.617 4.106,1.065 8.471,5.068 11.466,8.016 10.724,10.551 15.891,25.67 21.65,39.224 z"
       id="path18"
       style="fill:#e5ab05" /></g><g
     transform="matrix(0.86297313,0,0,0.86297313,-95.051174,-20.302714)"
     id="g20"><g
       id="g22"><path
         d="m 187.583,137.126 c -0.506,-0.519 -0.977,-1.02 -1.313,-1.515 -1.931,-2.854 -3.389,-6.221 -4.345,-9.521 -2.96,-10.21 -3.524,-22.985 -2.475,-33.549 1.066,-10.719 3.653,-22.158 10.511,-30.759 1.111,1.672 -1.442,5.244 -2.319,7.148 -1.702,3.696 -3.243,7.438 -4.199,11.47 -2.436,10.27 -2.826,22.032 -1.303,32.395 1.295,8.801 2.479,16.916 10.522,22.156 -4.604,-2.999 -5.156,-11.382 -4.76,-16.244 0.707,-8.682 6.354,-17.353 11.818,-23.893 5.983,-7.163 10.643,-16.019 14.182,-24.75 1.393,-3.433 3.775,-7.642 3.238,-11.479 -0.463,-3.317 -3.464,-6.573 -1.546,-10.119 2.693,-4.979 3.57,-0.209 5.528,0.583 2.008,0.814 4.121,-2.042 6.377,0.132 3.739,3.603 -3.316,11.114 -4.771,14.341 -1.228,2.73 -2.76,5.283 -3.465,8.307 -1.645,7.063 -1.653,15.068 -0.522,22.229 1.262,7.996 3.26,15.571 2.678,23.802 -0.309,4.342 -1.427,8.268 -3.753,11.979 -1.895,3.02 -4.814,5.113 -6.87,7.94 4.068,2.256 9.59,-4.888 11.978,-7.327 5.447,-5.566 8.212,-12.051 10.397,-19.537 2.35,-8.031 1.655,-15.819 2.422,-23.893 0.399,-4.216 1.444,-13.869 5.682,-16.168 -0.199,3.3 -2.155,6.521 -3.028,9.755 -1.464,5.415 -1.622,11.754 -1.869,17.374 -0.467,10.664 -1.211,18.657 -6.632,27.948 -3.114,5.338 -9.642,13.82 -15.246,16.404 -2.179,1.005 -9.448,0.645 -7.884,3.725 0.483,0.951 1.469,1.022 1.286,2.16 -0.271,1.692 -3.418,1.88 -3.779,3.459 -0.718,3.152 4.754,1.946 6.396,1.404 7.522,-2.483 14.31,-7.172 19.713,-12.898 4.574,-4.844 10.155,-10.555 17.377,-10.282 -6.204,2.022 -9.604,6.308 -13.441,11.275 -1.98,2.566 -4.023,5.14 -6.228,7.393 -4.79,4.895 -11.842,5.97 -17.78,8.854 -2.948,1.431 -4.491,3.685 -6.962,5.263 -1.771,1.129 -4.765,1.25 -5.327,3.656 -0.625,2.668 1.39,5.462 0.402,8.629 -1.457,4.664 -2.423,9.493 -4.162,14.066 -1.442,3.79 -4.232,7.563 -5.165,11.487 -0.433,1.821 0.678,5.479 -1.445,5.832 -4.015,0.665 -9.906,-8.228 -11.82,-10.908 -5.104,-7.149 0.823,-12.361 2.954,-19.621 0.842,-2.866 0.979,-5.778 2.53,-8.426 1.348,-2.3 4.834,-2.578 5.638,-4.319 1.306,-2.829 -6.343,-10.393 -7.741,-12.757 -1.452,-2.458 -2.775,-5.481 -4.059,-8.103 -2.562,-5.237 -2.371,-12.025 -3.836,-17.643 -1.335,-5.124 -0.762,-10.969 -4.924,-14.975 7.983,7.683 8.308,16.517 11.08,26.56 0.959,3.468 2.436,6.729 4.692,9.475 1.108,1.35 4.271,4.877 6.286,3.195 1.903,-1.587 -0.855,-2.873 -0.783,-4.634 0.086,-2.118 1.283,-1.063 2.836,-1.811 0.501,-2.071 -1.285,-3.741 -2.771,-5.265 z"
         id="path24"
         style="fill:#00a33d;stroke:#000000;stroke-width:0.44209999" /><path
         d="m 198.428,57.573 c 0.962,-2.69 3.184,-9.777 -1.336,-9.249 -4.022,0.469 -7.981,5.23 -9.561,8.668 -0.679,1.477 -1.687,4.103 -0.89,5.59 0.723,1.352 2.402,1.851 3.41,0.621 -0.211,3.122 1.986,3.551 4.185,1.745 2.23,-1.832 3.263,-4.775 4.192,-7.375 z"
         id="path26"
         style="fill:#ffff00;stroke:#000000;stroke-width:0.44209999" /><path
         d="m 244.63,71.441 c 0.672,-3.327 1.144,-13.935 -5.064,-9.738 -2.947,1.992 -6.577,9.123 -5.845,12.747 0.649,3.219 3.979,2.325 5.849,0.827 -0.2,1.765 1.083,2.804 2.483,2.114 1.73,-0.853 2.249,-4.321 2.577,-5.95 z"
         id="path28"
         style="fill:#ffff00;stroke:#000000;stroke-width:0.44209999" /><path
         d="m 218.107,52.563 c 1.498,-1.39 3.031,-3.125 5.002,-2.643 1.704,0.416 2.371,2.452 3.838,2.938"
         id="path30"
         style="fill:none;stroke:#000000;stroke-width:0.44209999" /><path
         d="m 191.095,148.39 c -2.404,3.312 -3.645,2.722 -6.414,0.896 -1.608,-1.059 -4.53,-4.84 -4.784,-0.901 -0.297,4.603 7.269,7.727 9.008,11.561 1.262,2.787 0.645,4.155 -1.677,6.14 -4.869,4.164 -11.723,14.399 -9.686,21.161 1.197,3.975 6.293,6.405 9.949,4.151 4.632,-2.856 7.786,-12.678 8.658,-17.712 0.639,-3.672 -3.376,-8.113 -0.13,-11.225 1.528,-1.465 5.106,-1.996 7.04,-3.188 2.592,-1.599 4.948,-3.446 7.959,-4.225 2.99,-0.775 6.303,-1.148 8.242,-3.707 -1.603,-0.282 -20.581,8.076 -16.698,0.316 0.571,-1.145 2.171,-1.861 1.934,-3.323 -0.283,-1.745 -2.484,-1.328 -1.436,-3.314 1.015,-1.923 4.058,-2.941 6.012,-3.415 0.559,-0.135 5.651,-1.991 5.183,-2.132 -3.423,-1.023 -9.458,1.46 -3.811,-3.738 8.842,-8.14 9.789,-18.812 8.956,-30.143 -0.361,-4.87 -1.616,-9.729 -2.518,-14.493 -0.563,-2.96 -2.305,-7.612 -6.072,-5.181 -3.425,2.21 -6.445,5.46 -9.188,8.457 -8.402,9.184 -16.302,24.837 -10.177,37.129 0.796,1.596 3.334,3.817 3.032,5.577 -1.376,-0.195 -7.174,-2.309 -6.868,-4.214 -0.542,3.235 2.994,5.435 4.446,7.861 1.602,2.674 0.759,5.293 -0.96,7.662 z"
         id="path32"
         style="fill:#16c14f" /><path
         d="m 200.264,131.462 c 0.286,-0.775 2.121,-7.759 1.707,-7.848 -0.082,-0.017 -0.163,-0.034 -0.243,-0.05 0.036,-0.448 0.034,-0.921 -0.293,-1.141 -0.188,0.836 -1.396,2.71 -2.508,2.185 -1.207,-0.573 -0.529,-3.497 -0.149,-4.37 0.678,-1.564 3.663,-4.59 4.249,-1.409 0.313,-1.279 0.799,-2.473 1.07,-3.783 0.161,-0.787 0.54,-1.723 0.116,-2.375 -0.241,-0.373 -1.061,0.395 -0.883,-0.675 -0.546,0.75 -1.043,2.969 -2.367,2.508 -1.639,-0.571 -1.033,-3.425 -0.436,-4.445 1.021,-1.745 4.251,-2.535 4.412,0.225 0.36,-0.927 0.455,-1.895 0.74,-2.866 0.266,-0.912 0.864,-2.008 0.709,-2.968 -0.143,0.141 -0.424,0.227 -0.573,0.371 0.409,-2.247 -0.958,-0.552 -1.72,0.053 -1.235,0.977 -2.618,0.37 -2.365,-1.441 0.201,-1.435 1.556,-3.307 3.068,-3.535 1.129,-0.17 1.853,0.65 2.68,1.236 1.555,-0.569 1.558,-3.771 2.022,-5.068 0.541,-1.506 0.681,-2.713 0.586,-4.267 -0.088,-1.458 -0.324,-1.185 -1.473,-0.317 -3.174,2.398 -5.495,5.207 -7.953,8.329 -2.405,3.059 -4.591,6.293 -6.032,9.926 -2.027,5.11 -3.601,10.856 -2.688,16.356 0.415,2.507 1.158,6.792 3.533,8.074 2.731,1.469 3.787,0.006 4.791,-2.705 z"
         id="path34"
         style="fill:#07772d" /><path
         d="m 211.669,131.417 c -1.394,1.628 -7.113,5.958 -7.903,1.434 -0.142,-0.808 -0.188,-3.49 0.842,-3.815 0.709,-0.224 1.209,0.888 1.879,1.02 1.034,0.205 1.538,-0.591 1.854,-1.488 0.461,-1.311 0.138,-6.313 -2.343,-5.14 -0.121,-1.671 -0.164,-4.859 0.978,-6.129 0.481,0.828 -0.135,2.091 0.507,2.914 0.913,1.173 1.875,0.286 2.358,-0.753 0.462,-0.989 0.289,-5.56 -1.779,-4.575 0.112,-1.375 -0.402,-4.991 1.568,-5.281 0.388,0.903 0.393,3.072 1.944,2.053 0.994,-0.653 1.126,-3.358 0.854,-4.4 -0.106,-0.425 -0.462,-1.131 -0.821,-1.396 -0.795,-0.584 -1.514,-0.241 -1.844,-1.446 -0.239,-0.88 0.217,-1.33 0.463,-2.08 0.691,-2.104 0.824,-4.343 1.624,-6.439 0.385,-1.005 1.5,-6.257 2.511,-3.234 1.62,4.84 2.899,9.17 3.288,14.253 0.338,4.375 0.319,8.139 -0.584,12.449 -0.346,1.645 -0.678,3.377 -1.324,4.938 -0.563,1.359 -1.181,2.882 -1.951,4.151 -0.583,0.956 -1.298,2.001 -2.121,2.964 z"
         id="path36"
         style="fill:#07772d" /><path
         d="m 242.346,73.548 c 0.931,-2.364 1.248,-5.976 1.105,-8.607 -0.192,-3.514 -1.824,-3.89 -3.696,-0.884 -1.395,2.242 -3.155,6.065 -2.468,8.774 0.694,2.741 3.874,3.742 5.059,0.717 z"
         id="path38"
         style="fill:#ffbf00;stroke:#000000;stroke-width:0.44209999" /><path
         d="m 191.953,62.685 c 1.297,-0.351 2.351,-1.768 3.034,-2.823 1.26,-1.945 4.071,-6.491 2.712,-8.856 -1.439,-2.503 -4.648,0.874 -5.67,2.081 -1.306,1.542 -2.604,3.36 -2.961,5.393 -0.353,2.011 0.154,4.946 2.885,4.205 z"
         id="path40"
         style="fill:#ffff00;stroke:#000000;stroke-width:0.44209999" /></g><circle
       cx="240.026"
       cy="67.925003"
       r="0.55199999"
       id="circle42"
       style="fill:#ffff00;stroke:#ff7f00;stroke-width:0.44209999" /><ellipse
       cx="242.291"
       cy="67.317001"
       rx="0.498"
       ry="0.60799998"
       id="ellipse44"
       style="fill:#ffff00;stroke:#ff7f00;stroke-width:0.44209999" /><circle
       cx="241.048"
       cy="65.575996"
       r="0.60699999"
       id="circle46"
       style="fill:#ffff00;stroke:#ff7f00;stroke-width:0.44209999" /><ellipse
       cx="241.241"
       cy="70.245003"
       rx="0.55199999"
       ry="0.66299999"
       id="ellipse48"
       style="fill:#ffff00;stroke:#ff7f00;stroke-width:0.44209999" /><ellipse
       cx="239.605"
       cy="71.432999"
       rx="0.58700001"
       ry="0.52499998"
       id="ellipse50"
       style="fill:#ffff00;stroke:#ff7f00;stroke-width:0.44209999" /><path
       d="m 242.018,73.497 c 0,0.391 -0.345,0.709 -0.775,0.709 -0.428,0 -0.773,-0.318 -0.773,-0.709 0,-0.392 0.346,-0.709 0.773,-0.709 0.43,0 0.775,0.317 0.775,0.709 z"
       id="path52"
       style="fill:#ffff00;stroke:#ff7f00;stroke-width:0.44209999" /><circle
       cx="238.50301"
       cy="69.981003"
       r="0.56199998"
       id="circle54"
       style="fill:#ffff00;stroke:#ff7f00;stroke-width:0.44209999" /><ellipse
       cx="242.16701"
       cy="63.84"
       rx="0.51099998"
       ry="0.65799999"
       id="ellipse56"
       style="fill:#ffff00;stroke:#ff7f00;stroke-width:0.44209999" /><ellipse
       cx="238.98599"
       cy="73.946999"
       rx="0.61799997"
       ry="0.60799998"
       id="ellipse58"
       style="fill:#ffff00;stroke:#ff7f00;stroke-width:0.44209999" /></g><line
     style="fill:none;stroke:#ccff00;stroke-width:0.38152042;stroke-dasharray:0.76295454"
     id="line222"
     y2="92.809761"
     x2="79.318596"
     y1="115.83562"
     x1="72.459671" /><path
     d=""
     id="path684"
     style="fill:#ffffff" /><path
     d="m 152.29345,62.12926 60.79952,-7.544466"
     id="path4525"
     style="fill:none;stroke:#000000;stroke-width:0.86297315;stroke-linecap:butt;stroke-linejoin:miter;stroke-miterlimit:4;stroke-opacity:1;stroke-dasharray:none;marker-start:url(#Arrow1Lstart)" /><text
     x="217.5309"
     y="52.957294"
     id="text5741"
     xml:space="preserve"
     style="font-size:10.3556776px;font-style:normal;font-variant:normal;font-weight:normal;font-stretch:normal;line-height:125%;letter-spacing:0px;word-spacing:0px;fill:#000000;fill-opacity:1;stroke:none;font-family:TeX Gyre Termes;-inkscape-font-specification:TeX Gyre Termes"><tspan
       x="217.5309"
       y="52.957294"
       id="tspan5743"
       style="font-size:12px">korunní lístky</tspan><tspan
       x="217.5309"
       y="68.089844"
       id="tspan5745"
       style="font-size:12px;font-style:italic;-inkscape-font-specification:TeX Gyre Termes Italic">(petals)</tspan></text>
<path
     d="M 104.3639,103.1574 213.09297,95.612932"
     id="path5747"
     style="fill:none;stroke:#000000;stroke-width:0.86297315;stroke-linecap:butt;stroke-linejoin:miter;stroke-miterlimit:4;stroke-opacity:1;stroke-dasharray:none;marker-start:url(#Arrow1Lstart)" /><text
     x="217.5309"
     y="93.985435"
     id="text5749"
     xml:space="preserve"
     style="font-size:10.3556776px;font-style:normal;font-variant:normal;font-weight:normal;font-stretch:normal;line-height:125%;letter-spacing:0px;word-spacing:0px;fill:#000000;fill-opacity:1;stroke:none;font-family:TeX Gyre Termes;-inkscape-font-specification:TeX Gyre Termes"><tspan
       x="217.5309"
       y="93.985435"
       id="tspan5751"
       style="font-size:12px">kališní lístky</tspan><tspan
       x="217.5309"
       y="109.11799"
       id="tspan5753"
       style="font-size:12px;font-style:italic;-inkscape-font-specification:TeX Gyre Termes Italic">(sepals)</tspan></text>
</svg>